<svg width="33" height="32" viewBox="0 0 33 32" fill="none" xmlns="http://www.w3.org/2000/svg">
<g clip-path="url(#clip0_2002_119)">
<path d="M16.426 2.66663C9.06605 2.66663 3.09271 8.63996 3.09271 16C3.09271 23.36 9.06605 29.3333 16.426 29.3333C23.786 29.3333 29.7594 23.36 29.7594 16C29.7594 8.63996 23.786 2.66663 16.426 2.66663ZM9.85271 24.3733C10.426 23.1733 13.9194 22 16.426 22C18.9327 22 22.4394 23.1733 22.9994 24.3733C21.186 25.8133 18.906 26.6666 16.426 26.6666C13.946 26.6666 11.666 25.8133 9.85271 24.3733ZM24.906 22.44C22.9994 20.12 18.3727 19.3333 16.426 19.3333C14.4794 19.3333 9.85271 20.12 7.94605 22.44C6.58605 20.6533 5.75938 18.4266 5.75938 16C5.75938 10.12 10.546 5.33329 16.426 5.33329C22.306 5.33329 27.0927 10.12 27.0927 16C27.0927 18.4266 26.266 20.6533 24.906 22.44ZM16.426 7.99996C13.8394 7.99996 11.7594 10.08 11.7594 12.6666C11.7594 15.2533 13.8394 17.3333 16.426 17.3333C19.0127 17.3333 21.0927 15.2533 21.0927 12.6666C21.0927 10.08 19.0127 7.99996 16.426 7.99996ZM16.426 14.6666C15.3194 14.6666 14.426 13.7733 14.426 12.6666C14.426 11.56 15.3194 10.6666 16.426 10.6666C17.5327 10.6666 18.426 11.56 18.426 12.6666C18.426 13.7733 17.5327 14.6666 16.426 14.6666Z" fill="#494961"/>
</g>
<defs>
<clipPath id="clip0_2002_119">
<rect width="32" height="32" fill="white" transform="translate(0.426025)"/>
</clipPath>
</defs>
</svg>
