<svg width="17" height="16" viewBox="0 0 17 16" fill="none" xmlns="http://www.w3.org/2000/svg">
<path d="M7.83334 11.3333H9.16667V7.33331H7.83334V11.3333ZM8.5 1.33331C4.82 1.33331 1.83334 4.31998 1.83334 7.99998C1.83334 11.68 4.82 14.6666 8.5 14.6666C12.18 14.6666 15.1667 11.68 15.1667 7.99998C15.1667 4.31998 12.18 1.33331 8.5 1.33331ZM8.5 13.3333C5.56 13.3333 3.16667 10.94 3.16667 7.99998C3.16667 5.05998 5.56 2.66665 8.5 2.66665C11.44 2.66665 13.8333 5.05998 13.8333 7.99998C13.8333 10.94 11.44 13.3333 8.5 13.3333ZM7.83334 5.99998H9.16667V4.66665H7.83334V5.99998Z" fill="white"/>
<path d="M7.83334 4.66669H9.16667V6.00002H7.83334V4.66669ZM7.83334 7.33335H9.16667V11.3334H7.83334V7.33335Z" fill="white"/>
<path d="M8.5 1.33331C4.82 1.33331 1.83334 4.31998 1.83334 7.99998C1.83334 11.68 4.82 14.6666 8.5 14.6666C12.18 14.6666 15.1667 11.68 15.1667 7.99998C15.1667 4.31998 12.18 1.33331 8.5 1.33331ZM8.5 13.3333C5.56 13.3333 3.16667 10.94 3.16667 7.99998C3.16667 5.05998 5.56 2.66665 8.5 2.66665C11.44 2.66665 13.8333 5.05998 13.8333 7.99998C13.8333 10.94 11.44 13.3333 8.5 13.3333Z" fill="white"/>
</svg>
