<svg width="45" height="44" viewBox="0 0 45 44" fill="none" xmlns="http://www.w3.org/2000/svg">
<rect opacity="0.1" x="1.39442" y="0.559761" width="42.5418" height="42.5418" rx="21.2709" fill="#091E42" stroke="#0A142F" stroke-width="1.11952"/>
<path fill-rule="evenodd" clip-rule="evenodd" d="M18.747 29.1075H15.3884V19.0318H18.747V29.1075Z" fill="#172B4D"/>
<path fill-rule="evenodd" clip-rule="evenodd" d="M17.0577 16.7929H17.0386C16.0364 16.7929 15.3884 16.0462 15.3884 15.113C15.3884 14.1601 16.0561 13.4343 17.0774 13.4343C18.0987 13.4343 18.7276 14.1601 18.747 15.113C18.747 16.0462 18.0987 16.7929 17.0577 16.7929Z" fill="#172B4D"/>
<path fill-rule="evenodd" clip-rule="evenodd" d="M31.0616 29.1072H27.7613V23.8405C27.7613 22.5177 27.2838 21.615 26.089 21.615C25.1772 21.615 24.6341 22.2235 24.3955 22.8113C24.3083 23.0219 24.2869 23.3154 24.2869 23.6096V29.1075H20.9861C20.9861 29.1075 21.0296 20.187 20.9861 19.2632H24.2869V20.6576C24.7249 19.9873 25.5094 19.0318 27.2617 19.0318C29.4336 19.0318 31.0618 20.4391 31.0618 23.4628L31.0616 29.1072Z" fill="#172B4D"/>
</svg>
