<svg width="33" height="32" viewBox="0 0 33 32" fill="none" xmlns="http://www.w3.org/2000/svg">
<g clip-path="url(#clip0_2002_123)">
<path d="M16.4261 7.86671C17.9727 7.86671 19.2261 9.12004 19.2261 10.6667C19.2261 12.2134 17.9727 13.4667 16.4261 13.4667C14.8794 13.4667 13.6261 12.2134 13.6261 10.6667C13.6261 9.12004 14.8794 7.86671 16.4261 7.86671ZM16.4261 19.8667C20.3861 19.8667 24.5594 21.8134 24.5594 22.6667V24.1334H8.29273V22.6667C8.29273 21.8134 12.4661 19.8667 16.4261 19.8667ZM16.4261 5.33337C13.4794 5.33337 11.0927 7.72004 11.0927 10.6667C11.0927 13.6134 13.4794 16 16.4261 16C19.3727 16 21.7594 13.6134 21.7594 10.6667C21.7594 7.72004 19.3727 5.33337 16.4261 5.33337ZM16.4261 17.3334C12.8661 17.3334 5.7594 19.12 5.7594 22.6667V25.3334C5.7594 26.0667 6.3594 26.6667 7.09273 26.6667H25.7594C26.4927 26.6667 27.0927 26.0667 27.0927 25.3334V22.6667C27.0927 19.12 19.9861 17.3334 16.4261 17.3334Z" fill="#323232"/>
</g>
<defs>
<clipPath id="clip0_2002_123">
<rect width="32" height="32" fill="white" transform="translate(0.426025)"/>
</clipPath>
</defs>
</svg>
