<svg width="33" height="32" viewBox="0 0 33 32" fill="none" xmlns="http://www.w3.org/2000/svg">
<g clip-path="url(#clip0_2002_124)">
<path d="M21.1594 17.3333C22.1594 17.3333 23.0394 16.7866 23.4927 15.96L28.2661 7.30663C28.7594 6.42663 28.1194 5.33329 27.1061 5.33329H7.37273L6.1194 2.66663H1.7594V5.33329H4.42607L9.22607 15.4533L7.42607 18.7066C6.45273 20.4933 7.73273 22.6666 9.7594 22.6666H25.7594V20H9.7594L11.2261 17.3333H21.1594ZM8.6394 7.99996H24.8394L21.1594 14.6666H11.7994L8.6394 7.99996ZM9.7594 24C8.29273 24 7.10607 25.2 7.10607 26.6666C7.10607 28.1333 8.29273 29.3333 9.7594 29.3333C11.2261 29.3333 12.4261 28.1333 12.4261 26.6666C12.4261 25.2 11.2261 24 9.7594 24ZM23.0927 24C21.6261 24 20.4394 25.2 20.4394 26.6666C20.4394 28.1333 21.6261 29.3333 23.0927 29.3333C24.5594 29.3333 25.7594 28.1333 25.7594 26.6666C25.7594 25.2 24.5594 24 23.0927 24Z" fill="#494961"/>
</g>
<defs>
<clipPath id="clip0_2002_124">
<rect width="32" height="32" fill="white" transform="translate(0.426025)"/>
</clipPath>
</defs>
</svg>
