<svg width="45" height="44" viewBox="0 0 45 44" fill="none" xmlns="http://www.w3.org/2000/svg">
<rect opacity="0.1" x="1.39838" y="0.559761" width="42.5418" height="42.5418" rx="21.2709" fill="#091E42" stroke="#0A142F" stroke-width="1.11952"/>
<path d="M27.1474 28.7347H17.8181C15.0193 28.7347 13.1534 26.9621 13.1534 24.3032V18.9855C13.1534 16.3267 15.0193 14.5541 17.8181 14.5541H27.1474C29.9462 14.5541 31.8121 16.3267 31.8121 18.9855V24.3032C31.8121 26.9621 29.9462 28.7347 27.1474 28.7347Z" stroke="#091E42" stroke-width="1.11952" stroke-miterlimit="10" stroke-linecap="round" stroke-linejoin="round"/>
<path d="M22.6693 19.615L25.0016 20.9444C25.8413 21.4762 25.8413 22.2738 25.0016 22.8056L22.6693 24.135C21.7363 24.6668 20.99 24.2237 20.99 23.2488V20.5899C20.99 19.4377 21.7363 19.0832 22.6693 19.615Z" stroke="#091E42" stroke-width="1.11952" stroke-miterlimit="10" stroke-linecap="round" stroke-linejoin="round"/>
</svg>
