<svg width="15" height="13" viewBox="0 0 15 13" fill="none" xmlns="http://www.w3.org/2000/svg">
<path fill-rule="evenodd" clip-rule="evenodd" d="M7.12443 3.94927L7.15598 4.48192L6.63018 4.4167C4.71629 4.16668 3.04426 3.31879 1.62461 1.89477L0.93056 1.1882L0.751789 1.70998C0.373217 2.87311 0.615083 4.10146 1.40378 4.9276C1.82441 5.38416 1.72977 5.44938 1.00417 5.17762C0.751789 5.09066 0.530955 5.02544 0.509923 5.05805C0.436312 5.13414 0.688694 6.12334 0.888496 6.51467C1.16191 7.05819 1.71925 7.59084 2.32918 7.90608L2.84446 8.1561L2.23453 8.16697C1.64564 8.16697 1.62461 8.17784 1.68771 8.40612C1.89802 9.11269 2.72878 9.86274 3.65418 10.1889L4.30617 10.4171L3.73831 10.765C2.89704 11.265 1.90854 11.5476 0.920044 11.5694C0.446828 11.5803 0.0577393 11.6237 0.0577393 11.6564C0.0577393 11.7651 1.34068 12.3738 2.08731 12.6129C4.3272 13.3195 6.98772 13.0151 8.98575 11.8085C10.4054 10.9498 11.825 9.24313 12.4875 7.59084C12.8451 6.71034 13.2026 5.10153 13.2026 4.32973C13.2026 3.8297 13.2342 3.76447 13.8231 3.16661C14.1701 2.81875 14.4961 2.43829 14.5592 2.32959C14.6643 2.12305 14.6538 2.12305 14.1175 2.30785C13.2237 2.63396 13.0975 2.59048 13.5391 2.10131C13.8651 1.75346 14.2542 1.12298 14.2542 0.938184C14.2542 0.905573 14.0965 0.959925 13.9177 1.05776C13.7284 1.16646 13.3078 1.32952 12.9923 1.42735L12.4245 1.61215L11.9092 1.25342C11.6252 1.05776 11.2256 0.840351 11.0153 0.775129C10.479 0.622944 9.65877 0.644685 9.17503 0.81861C7.86055 1.30778 7.02979 2.56874 7.12443 3.94927Z" fill="#172B4D"/>
</svg>
